<mxfile host="app.diagrams.net" modified="2024-06-09T05:44:57.837Z" agent="Mozilla/5.0 (Windows NT 10.0; Win64; x64) AppleWebKit/537.36 (KHTML, like Gecko) Chrome/125.0.0.0 Safari/537.36 Edg/125.0.0.0" etag="jJONNRzBG7ElqSPAYdwl" version="24.5.2" type="device">
  <diagram name="Page-1" id="LA9-Y1V1zJIlQjxkmPLj">
    <mxGraphModel dx="1050" dy="619" grid="1" gridSize="10" guides="1" tooltips="1" connect="1" arrows="1" fold="1" page="1" pageScale="1" pageWidth="827" pageHeight="1169" math="0" shadow="0">
      <root>
        <mxCell id="0" />
        <mxCell id="1" parent="0" />
        <mxCell id="rpDP4vhG7Fsu-FvYb7s8-1" value="&lt;span style=&quot;text-wrap: nowrap;&quot;&gt;Technical&lt;/span&gt;&lt;br style=&quot;text-wrap: nowrap;&quot;&gt;&lt;span style=&quot;text-wrap: nowrap;&quot;&gt;team&lt;/span&gt;" style="html=1;shape=mxgraph.sysml.actPart;strokeWidth=3;verticalAlign=top;rotation=0;whiteSpace=wrap;" parent="1" vertex="1">
          <mxGeometry x="156" y="20" width="125" height="1090" as="geometry" />
        </mxCell>
        <mxCell id="rpDP4vhG7Fsu-FvYb7s8-2" value="marketing expert" style="html=1;shape=mxgraph.sysml.actPart;strokeWidth=3;verticalAlign=top;rotation=0;whiteSpace=wrap;" parent="1" vertex="1">
          <mxGeometry x="286" y="20" width="125" height="1090" as="geometry" />
        </mxCell>
        <mxCell id="rpDP4vhG7Fsu-FvYb7s8-3" value="Website (Front)" style="html=1;shape=mxgraph.sysml.actPart;strokeWidth=3;verticalAlign=top;rotation=0;whiteSpace=wrap;" parent="1" vertex="1">
          <mxGeometry x="416" y="20" width="125" height="1090" as="geometry" />
        </mxCell>
        <mxCell id="rpDP4vhG7Fsu-FvYb7s8-4" value="Website (Back)" style="html=1;shape=mxgraph.sysml.actPart;strokeWidth=3;verticalAlign=top;rotation=0;whiteSpace=wrap;" parent="1" vertex="1">
          <mxGeometry x="546" y="20" width="125" height="1090" as="geometry" />
        </mxCell>
        <mxCell id="rpDP4vhG7Fsu-FvYb7s8-5" value="(D.B)" style="html=1;shape=mxgraph.sysml.actPart;strokeWidth=3;verticalAlign=top;rotation=0;whiteSpace=wrap;" parent="1" vertex="1">
          <mxGeometry x="676" y="20" width="125" height="1090" as="geometry" />
        </mxCell>
        <mxCell id="C2aeevf4GBCR70fuOXPk-1" value="Customer" style="html=1;shape=mxgraph.sysml.actPart;strokeWidth=3;verticalAlign=top;rotation=0;whiteSpace=wrap;" parent="1" vertex="1">
          <mxGeometry x="26" y="20" width="125" height="1090" as="geometry" />
        </mxCell>
        <mxCell id="C2aeevf4GBCR70fuOXPk-4" style="edgeStyle=orthogonalEdgeStyle;rounded=0;orthogonalLoop=1;jettySize=auto;html=1;" parent="1" source="C2aeevf4GBCR70fuOXPk-2" target="C2aeevf4GBCR70fuOXPk-3" edge="1">
          <mxGeometry relative="1" as="geometry" />
        </mxCell>
        <mxCell id="C2aeevf4GBCR70fuOXPk-2" value="" style="shape=ellipse;html=1;fillColor=strokeColor;strokeWidth=2;verticalLabelPosition=bottom;verticalAlignment=top;perimeter=ellipsePerimeter;" parent="1" vertex="1">
          <mxGeometry x="78.5" y="60" width="20" height="20" as="geometry" />
        </mxCell>
        <mxCell id="C2aeevf4GBCR70fuOXPk-21" style="edgeStyle=orthogonalEdgeStyle;rounded=0;orthogonalLoop=1;jettySize=auto;html=1;" parent="1" source="C2aeevf4GBCR70fuOXPk-3" edge="1">
          <mxGeometry relative="1" as="geometry">
            <mxPoint x="390" y="220" as="targetPoint" />
            <Array as="points">
              <mxPoint x="89" y="220" />
              <mxPoint x="380" y="220" />
            </Array>
          </mxGeometry>
        </mxCell>
        <mxCell id="C2aeevf4GBCR70fuOXPk-3" value="رفتن به&amp;nbsp;&lt;br&gt;ورود&lt;br&gt;دکمه" style="shape=rect;html=1;rounded=1;whiteSpace=wrap;align=center;" parent="1" vertex="1">
          <mxGeometry x="32.75" y="110" width="111.5" height="50" as="geometry" />
        </mxCell>
        <mxCell id="C2aeevf4GBCR70fuOXPk-20" style="edgeStyle=orthogonalEdgeStyle;rounded=0;orthogonalLoop=1;jettySize=auto;html=1;" parent="1" source="C2aeevf4GBCR70fuOXPk-5" edge="1">
          <mxGeometry relative="1" as="geometry">
            <mxPoint x="390" y="190" as="targetPoint" />
            <Array as="points">
              <mxPoint x="219" y="190" />
              <mxPoint x="370" y="190" />
            </Array>
          </mxGeometry>
        </mxCell>
        <mxCell id="C2aeevf4GBCR70fuOXPk-5" value="رفتن به&amp;nbsp;&lt;br&gt;ورود&lt;br&gt;دکمه" style="shape=rect;html=1;rounded=1;whiteSpace=wrap;align=center;" parent="1" vertex="1">
          <mxGeometry x="162.75" y="110" width="111.5" height="50" as="geometry" />
        </mxCell>
        <mxCell id="C2aeevf4GBCR70fuOXPk-7" value="" style="edgeStyle=orthogonalEdgeStyle;rounded=0;orthogonalLoop=1;jettySize=auto;html=1;" parent="1" source="C2aeevf4GBCR70fuOXPk-6" target="C2aeevf4GBCR70fuOXPk-5" edge="1">
          <mxGeometry relative="1" as="geometry" />
        </mxCell>
        <mxCell id="C2aeevf4GBCR70fuOXPk-6" value="" style="shape=ellipse;html=1;fillColor=strokeColor;strokeWidth=2;verticalLabelPosition=bottom;verticalAlignment=top;perimeter=ellipsePerimeter;" parent="1" vertex="1">
          <mxGeometry x="208.5" y="60" width="20" height="20" as="geometry" />
        </mxCell>
        <mxCell id="C2aeevf4GBCR70fuOXPk-8" value="" style="shape=ellipse;html=1;fillColor=strokeColor;strokeWidth=2;verticalLabelPosition=bottom;verticalAlignment=top;perimeter=ellipsePerimeter;" parent="1" vertex="1">
          <mxGeometry x="338.5" y="60" width="20" height="20" as="geometry" />
        </mxCell>
        <mxCell id="C2aeevf4GBCR70fuOXPk-9" value="" style="edgeStyle=orthogonalEdgeStyle;rounded=0;orthogonalLoop=1;jettySize=auto;html=1;" parent="1" source="C2aeevf4GBCR70fuOXPk-8" target="C2aeevf4GBCR70fuOXPk-10" edge="1">
          <mxGeometry relative="1" as="geometry" />
        </mxCell>
        <mxCell id="C2aeevf4GBCR70fuOXPk-19" style="edgeStyle=orthogonalEdgeStyle;rounded=0;orthogonalLoop=1;jettySize=auto;html=1;" parent="1" source="C2aeevf4GBCR70fuOXPk-10" edge="1">
          <mxGeometry relative="1" as="geometry">
            <mxPoint x="390" y="180" as="targetPoint" />
          </mxGeometry>
        </mxCell>
        <mxCell id="C2aeevf4GBCR70fuOXPk-10" value="رفتن به&amp;nbsp;&lt;br&gt;ورود&lt;br&gt;دکمه" style="shape=rect;html=1;rounded=1;whiteSpace=wrap;align=center;" parent="1" vertex="1">
          <mxGeometry x="292.75" y="110" width="111.5" height="50" as="geometry" />
        </mxCell>
        <mxCell id="C2aeevf4GBCR70fuOXPk-25" style="edgeStyle=orthogonalEdgeStyle;rounded=0;orthogonalLoop=1;jettySize=auto;html=1;" parent="1" source="C2aeevf4GBCR70fuOXPk-11" target="C2aeevf4GBCR70fuOXPk-24" edge="1">
          <mxGeometry relative="1" as="geometry" />
        </mxCell>
        <mxCell id="C2aeevf4GBCR70fuOXPk-11" value="باز کردن صفحه login" style="shape=rect;html=1;rounded=1;whiteSpace=wrap;align=center;" parent="1" vertex="1">
          <mxGeometry x="422.75" y="200" width="111.5" height="50" as="geometry" />
        </mxCell>
        <mxCell id="C2aeevf4GBCR70fuOXPk-18" value="" style="endArrow=none;html=1;rounded=0;entryX=0.352;entryY=0.165;entryDx=0;entryDy=0;entryPerimeter=0;exitX=0.352;exitY=0.22;exitDx=0;exitDy=0;exitPerimeter=0;" parent="1" edge="1">
          <mxGeometry width="50" height="50" relative="1" as="geometry">
            <mxPoint x="390" y="229.95000000000007" as="sourcePoint" />
            <mxPoint x="390" y="170.00000000000003" as="targetPoint" />
          </mxGeometry>
        </mxCell>
        <mxCell id="C2aeevf4GBCR70fuOXPk-23" value="" style="edgeStyle=orthogonalEdgeStyle;rounded=0;orthogonalLoop=1;jettySize=auto;html=1;" parent="1" target="C2aeevf4GBCR70fuOXPk-11" edge="1">
          <mxGeometry relative="1" as="geometry">
            <mxPoint x="390" y="190" as="sourcePoint" />
            <mxPoint x="349" y="110" as="targetPoint" />
            <Array as="points">
              <mxPoint x="450" y="190" />
              <mxPoint x="450" y="160" />
              <mxPoint x="480" y="160" />
            </Array>
          </mxGeometry>
        </mxCell>
        <mxCell id="C2aeevf4GBCR70fuOXPk-27" style="edgeStyle=orthogonalEdgeStyle;rounded=0;orthogonalLoop=1;jettySize=auto;html=1;" parent="1" source="C2aeevf4GBCR70fuOXPk-24" target="C2aeevf4GBCR70fuOXPk-26" edge="1">
          <mxGeometry relative="1" as="geometry" />
        </mxCell>
        <mxCell id="C2aeevf4GBCR70fuOXPk-24" value="وارد کردن شماره ملی" style="shape=rect;html=1;rounded=1;whiteSpace=wrap;align=center;" parent="1" vertex="1">
          <mxGeometry x="422.75" y="270" width="111.5" height="50" as="geometry" />
        </mxCell>
        <mxCell id="C2aeevf4GBCR70fuOXPk-29" style="edgeStyle=orthogonalEdgeStyle;rounded=0;orthogonalLoop=1;jettySize=auto;html=1;" parent="1" source="C2aeevf4GBCR70fuOXPk-26" target="C2aeevf4GBCR70fuOXPk-28" edge="1">
          <mxGeometry relative="1" as="geometry" />
        </mxCell>
        <mxCell id="C2aeevf4GBCR70fuOXPk-26" value="وارد کردن شماره همراه" style="shape=rect;html=1;rounded=1;whiteSpace=wrap;align=center;" parent="1" vertex="1">
          <mxGeometry x="422.75" y="340" width="111.5" height="50" as="geometry" />
        </mxCell>
        <mxCell id="C2aeevf4GBCR70fuOXPk-31" style="edgeStyle=orthogonalEdgeStyle;rounded=0;orthogonalLoop=1;jettySize=auto;html=1;" parent="1" source="C2aeevf4GBCR70fuOXPk-28" edge="1">
          <mxGeometry relative="1" as="geometry">
            <mxPoint x="608.5581395348838" y="470" as="targetPoint" />
          </mxGeometry>
        </mxCell>
        <mxCell id="C2aeevf4GBCR70fuOXPk-28" value="زدن دکمه ورود" style="shape=rect;html=1;rounded=1;whiteSpace=wrap;align=center;" parent="1" vertex="1">
          <mxGeometry x="422.75" y="410" width="111.5" height="50" as="geometry" />
        </mxCell>
        <mxCell id="C2aeevf4GBCR70fuOXPk-34" style="edgeStyle=orthogonalEdgeStyle;rounded=0;orthogonalLoop=1;jettySize=auto;html=1;" parent="1" source="C2aeevf4GBCR70fuOXPk-32" target="C2aeevf4GBCR70fuOXPk-33" edge="1">
          <mxGeometry relative="1" as="geometry">
            <Array as="points">
              <mxPoint x="479" y="510" />
            </Array>
          </mxGeometry>
        </mxCell>
        <mxCell id="C2aeevf4GBCR70fuOXPk-36" style="edgeStyle=orthogonalEdgeStyle;rounded=0;orthogonalLoop=1;jettySize=auto;html=1;" parent="1" source="C2aeevf4GBCR70fuOXPk-32" target="C2aeevf4GBCR70fuOXPk-37" edge="1">
          <mxGeometry relative="1" as="geometry">
            <mxPoint x="608.5581395348838" y="580" as="targetPoint" />
          </mxGeometry>
        </mxCell>
        <mxCell id="C2aeevf4GBCR70fuOXPk-32" value="صحت سنجی کد ملی" style="rhombus;whiteSpace=wrap;html=1;" parent="1" vertex="1">
          <mxGeometry x="568.5" y="470" width="80" height="80" as="geometry" />
        </mxCell>
        <mxCell id="C2aeevf4GBCR70fuOXPk-33" value="کد ملی قابل قبول نیست" style="shape=rect;html=1;rounded=1;whiteSpace=wrap;align=center;" parent="1" vertex="1">
          <mxGeometry x="422.75" y="530" width="111.5" height="50" as="geometry" />
        </mxCell>
        <mxCell id="C2aeevf4GBCR70fuOXPk-39" style="edgeStyle=orthogonalEdgeStyle;rounded=0;orthogonalLoop=1;jettySize=auto;html=1;" parent="1" source="C2aeevf4GBCR70fuOXPk-37" target="C2aeevf4GBCR70fuOXPk-38" edge="1">
          <mxGeometry relative="1" as="geometry">
            <Array as="points">
              <mxPoint x="470" y="625" />
            </Array>
          </mxGeometry>
        </mxCell>
        <mxCell id="C2aeevf4GBCR70fuOXPk-41" style="edgeStyle=orthogonalEdgeStyle;rounded=0;orthogonalLoop=1;jettySize=auto;html=1;" parent="1" source="C2aeevf4GBCR70fuOXPk-37" target="C2aeevf4GBCR70fuOXPk-40" edge="1">
          <mxGeometry relative="1" as="geometry">
            <Array as="points">
              <mxPoint x="740" y="625" />
            </Array>
          </mxGeometry>
        </mxCell>
        <mxCell id="C2aeevf4GBCR70fuOXPk-37" value="صحت سنجی شماره تلفن همراه" style="rhombus;whiteSpace=wrap;html=1;" parent="1" vertex="1">
          <mxGeometry x="568.5" y="585" width="80" height="80" as="geometry" />
        </mxCell>
        <mxCell id="C2aeevf4GBCR70fuOXPk-38" value="شماره باید با 09 شروع شود" style="shape=rect;html=1;rounded=1;whiteSpace=wrap;align=center;" parent="1" vertex="1">
          <mxGeometry x="422.75" y="650" width="111.5" height="50" as="geometry" />
        </mxCell>
        <mxCell id="C2aeevf4GBCR70fuOXPk-43" style="edgeStyle=orthogonalEdgeStyle;rounded=0;orthogonalLoop=1;jettySize=auto;html=1;" parent="1" source="C2aeevf4GBCR70fuOXPk-44" target="C2aeevf4GBCR70fuOXPk-42" edge="1">
          <mxGeometry relative="1" as="geometry">
            <Array as="points" />
          </mxGeometry>
        </mxCell>
        <mxCell id="C2aeevf4GBCR70fuOXPk-40" value="ذخیره در پایگاه داده" style="shape=rect;html=1;rounded=1;whiteSpace=wrap;align=center;" parent="1" vertex="1">
          <mxGeometry x="682.75" y="660" width="111.5" height="50" as="geometry" />
        </mxCell>
        <mxCell id="C2aeevf4GBCR70fuOXPk-47" style="edgeStyle=orthogonalEdgeStyle;rounded=0;orthogonalLoop=1;jettySize=auto;html=1;" parent="1" source="C2aeevf4GBCR70fuOXPk-42" target="C2aeevf4GBCR70fuOXPk-46" edge="1">
          <mxGeometry relative="1" as="geometry" />
        </mxCell>
        <mxCell id="C2aeevf4GBCR70fuOXPk-42" value="باز کردن صفحه اصلی با سطح دسترسی" style="shape=rect;html=1;rounded=1;whiteSpace=wrap;align=center;" parent="1" vertex="1">
          <mxGeometry x="422.75" y="740" width="111.5" height="50" as="geometry" />
        </mxCell>
        <mxCell id="C2aeevf4GBCR70fuOXPk-45" value="" style="edgeStyle=orthogonalEdgeStyle;rounded=0;orthogonalLoop=1;jettySize=auto;html=1;" parent="1" source="C2aeevf4GBCR70fuOXPk-40" target="C2aeevf4GBCR70fuOXPk-44" edge="1">
          <mxGeometry relative="1" as="geometry">
            <mxPoint x="739" y="710" as="sourcePoint" />
            <mxPoint x="534" y="765" as="targetPoint" />
            <Array as="points">
              <mxPoint x="739" y="765" />
            </Array>
          </mxGeometry>
        </mxCell>
        <mxCell id="C2aeevf4GBCR70fuOXPk-44" value="ارسال سطح دسترسی کاربر" style="shape=rect;html=1;rounded=1;whiteSpace=wrap;align=center;" parent="1" vertex="1">
          <mxGeometry x="682.75" y="740" width="111.5" height="50" as="geometry" />
        </mxCell>
        <mxCell id="C2aeevf4GBCR70fuOXPk-46" value="" style="html=1;shape=mxgraph.sysml.actFinal;strokeWidth=2;verticalLabelPosition=bottom;verticalAlignment=top;" parent="1" vertex="1">
          <mxGeometry x="468.5" y="830" width="20" height="20" as="geometry" />
        </mxCell>
      </root>
    </mxGraphModel>
  </diagram>
</mxfile>
